<?xml version="1.0" encoding="UTF-8"?>
<svg xmlns="http://www.w3.org/2000/svg" id="logo" data-name="Layer 3" viewBox="0 0 64 64" width="512" height="512"><path d="M62.85,2.528a1,1,0,0,0-1.377-1.377L51.106,7.6A30.972,30.972,0,0,0,20.125,3.367,11.977,11.977,0,0,0,3.367,20.125,30.97,30.97,0,0,0,7.6,51.106L1.152,61.472A1,1,0,0,0,2.529,62.85L12.9,56.405A30.992,30.992,0,0,0,56.405,12.9ZM38.815,37.4l-1.93-1.93a5.96,5.96,0,0,0,0-6.942L47.707,17.707l-1.414-1.414L35.471,27.115a5.96,5.96,0,0,0-6.942,0L26.6,25.183,58.889,5.112Zm.671,2.471A.976.976,0,0,0,39.8,39.6l0,0a1.032,1.032,0,0,0,.061-.091L52.973,18.415A24.774,24.774,0,0,1,57,32,25.028,25.028,0,0,1,32,57a24.777,24.777,0,0,1-13.586-4.027ZM28,32a4,4,0,1,1,4,4A4,4,0,0,1,28,32ZM11.027,45.586A24.83,24.83,0,0,1,8.318,24.048a12,12,0,0,0,15.73-15.73,24.831,24.831,0,0,1,21.537,2.708L24.473,24.149a1,1,0,0,0-.322.321ZM49.271,8.735,47.443,9.872A26.832,26.832,0,0,0,23.091,6.531a12.105,12.105,0,0,0-1.308-1.68A28.962,28.962,0,0,1,49.271,8.735ZM13,3A10,10,0,1,1,3,13,10.011,10.011,0,0,1,13,3ZM3,32A28.8,28.8,0,0,1,4.851,21.783a12.105,12.105,0,0,0,1.68,1.308A26.832,26.832,0,0,0,9.872,47.443L8.736,49.271A29.038,29.038,0,0,1,3,32Zm22.183-5.4,1.932,1.932a5.96,5.96,0,0,0,0,6.942L16.293,46.293l1.414,1.414L28.529,36.885a5.96,5.96,0,0,0,6.942,0l1.929,1.93L5.113,58.888ZM61,32A28.967,28.967,0,0,1,14.729,55.264l1.828-1.136a26.978,26.978,0,0,0,37.571-37.57l1.137-1.829A29.041,29.041,0,0,1,61,32Z" fill='#fff' /><path d="M7.447,18.9,13,16.118,18.553,18.9A1.011,1.011,0,0,0,19,19a1,1,0,0,0,.908-1.419l-6-13a1,1,0,0,0-1.816,0l-6,13A1,1,0,0,0,7.447,18.9ZM13,7.386l3.9,8.445-3.45-1.726a1,1,0,0,0-.894,0L9.1,15.831Z" fill='#fff'/><path d="M32,17a3,3,0,0,0,3-3V12a3,3,0,0,0-6,0v2A3,3,0,0,0,32,17Zm-1-5a1,1,0,0,1,2,0v2a1,1,0,0,1-2,0Z" fill='#fff' /><path d="M32,55a3,3,0,0,0,3-3V50a3,3,0,0,0-6,0v2A3,3,0,0,0,32,55Zm-1-5a1,1,0,0,1,2,0v2a1,1,0,0,1-2,0Z" fill='#fff'/><path d="M44.021,48.264a3,3,0,0,0,4.242-4.243L46.85,42.606a3.076,3.076,0,0,0-4.244,0,3.006,3.006,0,0,0,0,4.244Zm0-4.243a1,1,0,0,1,1.414,0l1.414,1.414a1,1,0,0,1-1.414,1.415l-1.414-1.414A1,1,0,0,1,44.021,44.021Z" fill='#fff'/><path d="M50,35h2a3,3,0,0,0,0-6H50a3,3,0,0,0,0,6Zm0-4h2a1,1,0,0,1,0,2H50a1,1,0,0,1,0-2Z" fill='#fff'/><path d="M14,29H12a3,3,0,0,0,0,6h2a3,3,0,0,0,0-6Zm0,4H12a1,1,0,0,1,0-2h2a1,1,0,0,1,0,2Z" fill='#fff'/></svg>
